<svg xmlns="http://www.w3.org/2000/svg" width="680" viewBox="0 0 680 1410" font-family="'Courier New', monospace" style="background:#fff">
  <title>Diagramma delle Classi — BiblioNet</title>
  <desc>Diagramma UML delle classi del progetto BiblioNet con gerarchia utenti, classi Elemento e Scompartimento, e relazioni di ereditarietà e associazione.</desc>
  <defs>
    <marker id="arrow" viewBox="0 0 10 10" refX="8" refY="5" markerWidth="6" markerHeight="6" orient="auto-start-reverse">
      <path d="M2 1L8 5L2 9" fill="none" stroke="#333" stroke-width="1.5" stroke-linecap="round" stroke-linejoin="round"/>
    </marker>
  </defs>

  <style>
    text { font-family: 'Courier New', monospace; fill: #1a1a1a; }
    .title { font-size: 15px; font-weight: 600; }
    .classname { font-size: 13px; font-weight: 700; }
    .body { font-size: 11px; }
    .label { font-size: 10px; fill: #666; }
    .stereotype { font-size: 10px; fill: #555; font-style: italic; }
  </style>

  <!-- TITOLO -->

  <!-- ═══ UTENTE REGISTRATO BASE ═══ -->
  <rect x="190" y="52" width="300" height="22" fill="#e8e8e8" stroke="#333333" stroke-width="0.8"/>
  <text class="classname" x="340" y="67" text-anchor="middle" fill="#111111">UtenteRegistratoBase</text>
  <rect x="190" y="74" width="300" height="68" fill="#fff" stroke="#333333" stroke-width="0.5"/>
  <text class="body" x="202" y="90">- codiceRegistrazione : String</text>
  <text class="body" x="202" y="106">- nome : String</text>
  <text class="body" x="202" y="122">- email : String</text>
  <text class="body" x="202" y="138">- listaPreferiti : List&lt;Elemento&gt;</text>
  <line x1="190" y1="142" x2="490" y2="142" stroke="#333333" stroke-width="0.5"/>
  <rect x="190" y="142" width="300" height="68" fill="#fff" stroke="#333333" stroke-width="0.5"/>
  <text class="body" x="202" y="158">+ accedi() : String</text>
  <text class="body" x="202" y="174">+ salvaPreferiti(e: Elemento) : String</text>
  <text class="body" x="202" y="190">+ visualizzaPreferiti() : List&lt;Elemento&gt;</text>
  <text class="body" x="202" y="206">+ votaAmministratore() : String</text>
  <rect x="190" y="52" width="300" height="158" fill="none" stroke="#333333" stroke-width="1.2" rx="4"/>

  <!-- INHERITANCE STEM -->
  <line x1="340" y1="210" x2="340" y2="270" stroke="#333" stroke-width="0.8"/>
  <line x1="75" y1="270" x2="605" y2="270" stroke="#333" stroke-width="0.8"/>
  <line x1="75" y1="270" x2="75" y2="310" stroke="#333" stroke-width="0.8"/>
  <line x1="225" y1="270" x2="225" y2="310" stroke="#333" stroke-width="0.8"/>
  <line x1="455" y1="270" x2="455" y2="310" stroke="#333" stroke-width="0.8"/>
  <line x1="605" y1="270" x2="605" y2="310" stroke="#333" stroke-width="0.8"/>
  <polygon points="340,210 334,222 346,222" fill="none" stroke="#333" stroke-width="0.8"/>
  <text class="stereotype" x="349" y="245">«extends»</text>

  <!-- ═══ PUBBLICATORE ═══ -->
  <rect x="18" y="310" width="114" height="22" fill="#e8e8e8" stroke="#333333" stroke-width="0.8"/>
  <text class="classname" x="75" y="325" text-anchor="middle" fill="#111111">Pubblicatore</text>
  <rect x="18" y="332" width="114" height="52" fill="#fff" stroke="#333333" stroke-width="0.5"/>
  <text class="body" x="26" y="348">- nomeRuolo : String</text>
  <text class="body" x="26" y="364">- codice : String</text>
  <text class="body" x="26" y="378">- attivo : Boolean</text>
  <line x1="18" y1="384" x2="132" y2="384" stroke="#333333" stroke-width="0.5"/>
  <rect x="18" y="384" width="114" height="132" fill="#fff" stroke="#333333" stroke-width="0.5"/>
  <text class="body" x="26" y="400">+ aggiungiElemento()</text>
  <text class="body" x="26" y="416">+ modificaElemento()</text>
  <text class="body" x="26" y="432">+ aggiungiScomp.()</text>
  <text class="body" x="26" y="448">+ modificaScomp.()</text>
  <text class="body" x="26" y="464">+ notificaModeratore()</text>
  <text class="body" x="26" y="480">+ votaAmministratore()</text>
  <text class="body" x="26" y="496">+ salvaPreferiti()</text>
  <text class="body" x="26" y="512">  : String</text>
  <rect x="18" y="310" width="114" height="206" fill="none" stroke="#333333" stroke-width="1.2" rx="4"/>

  <!-- ═══ MODERATORE ═══ -->
  <rect x="168" y="310" width="114" height="22" fill="#e8e8e8" stroke="#333333" stroke-width="0.8"/>
  <text class="classname" x="225" y="325" text-anchor="middle" fill="#111111">Moderatore</text>
  <rect x="168" y="332" width="114" height="52" fill="#fff" stroke="#333333" stroke-width="0.5"/>
  <text class="body" x="176" y="348">- nomeRuolo : String</text>
  <text class="body" x="176" y="364">- codice : String</text>
  <text class="body" x="176" y="378">- attivo : Boolean</text>
  <line x1="168" y1="384" x2="282" y2="384" stroke="#333333" stroke-width="0.5"/>
  <rect x="168" y="384" width="114" height="148" fill="#fff" stroke="#333333" stroke-width="0.5"/>
  <text class="body" x="176" y="400">+ monitoraPanel.()</text>
  <text class="body" x="176" y="416">+ segnalaInfrazioni()</text>
  <text class="body" x="176" y="432">+ inviaAvvisi()</text>
  <text class="body" x="176" y="448">+ eliminaElemento()</text>
  <text class="body" x="176" y="464">+ eliminaScomp.()</text>
  <text class="body" x="176" y="480">+ sospendiProfilo()</text>
  <text class="body" x="176" y="496">+ votaAmministratore()</text>
  <text class="body" x="176" y="512">+ salvaPreferiti()</text>
  <text class="body" x="176" y="528">  : String</text>
  <rect x="168" y="310" width="114" height="222" fill="none" stroke="#333333" stroke-width="1.2" rx="4"/>

  <!-- ═══ PROVVEDITORE ═══ -->
  <rect x="398" y="310" width="114" height="22" fill="#e8e8e8" stroke="#333333" stroke-width="0.8"/>
  <text class="classname" x="455" y="325" text-anchor="middle" fill="#111111">Provveditore</text>
  <rect x="398" y="332" width="114" height="52" fill="#fff" stroke="#333333" stroke-width="0.5"/>
  <text class="body" x="406" y="348">- nomeRuolo : String</text>
  <text class="body" x="406" y="364">- codice : String</text>
  <text class="body" x="406" y="378">- attivo : Boolean</text>
  <line x1="398" y1="384" x2="512" y2="384" stroke="#333333" stroke-width="0.5"/>
  <rect x="398" y="384" width="114" height="164" fill="#fff" stroke="#333333" stroke-width="0.5"/>
  <text class="body" x="406" y="400">+ indireRiunione()</text>
  <text class="body" x="406" y="416">+ deliberarePuniz.()</text>
  <text class="body" x="406" y="432">+ consultaAmmin.()</text>
  <text class="body" x="406" y="448">+ istruisciMod.()</text>
  <text class="body" x="406" y="464">+ eliminaElemento()</text>
  <text class="body" x="406" y="480">+ eliminaScomp.()</text>
  <text class="body" x="406" y="496">+ votaAmministratore()</text>
  <text class="body" x="406" y="512">+ salvaPreferiti()</text>
  <text class="body" x="406" y="528">  : String</text>
  <text class="body" x="406" y="544">+ discutiQuestioni()</text>
  <rect x="398" y="310" width="114" height="238" fill="none" stroke="#333333" stroke-width="1.2" rx="4"/>

  <!-- ═══ AMMINISTRATORE ═══ -->
  <rect x="548" y="310" width="114" height="22" fill="#e8e8e8" stroke="#333333" stroke-width="0.8"/>
  <text class="classname" x="605" y="325" text-anchor="middle" fill="#111111">Amministratore</text>
  <rect x="548" y="332" width="114" height="68" fill="#fff" stroke="#333333" stroke-width="0.5"/>
  <text class="body" x="556" y="348">- nomeRuolo : String</text>
  <text class="body" x="556" y="364">- dataElezione : Date</text>
  <text class="body" x="556" y="380">- durataMandato</text>
  <text class="body" x="556" y="394">  : Int = 18</text>
  <line x1="548" y1="400" x2="662" y2="400" stroke="#333333" stroke-width="0.5"/>
  <rect x="548" y="400" width="114" height="180" fill="#fff" stroke="#333333" stroke-width="0.5"/>
  <text class="body" x="556" y="416">+ assegnaIncarichi()</text>
  <text class="body" x="556" y="432">+ supervisiona()</text>
  <text class="body" x="556" y="448">+ segnalaProblem.()</text>
  <text class="body" x="556" y="464">+ approvaProposte()</text>
  <text class="body" x="556" y="480">+ eliminaElemento()</text>
  <text class="body" x="556" y="496">+ eliminaScomp.()</text>
  <text class="body" x="556" y="512">+ salvaPreferiti()</text>
  <text class="body" x="556" y="528">  : String</text>
  <text class="body" x="556" y="544">+ correggiErrori()</text>
  <text class="body" x="556" y="560">  : String</text>
  <rect x="548" y="310" width="114" height="272" fill="none" stroke="#333333" stroke-width="1.2" rx="4"/>

  <!-- ═══ CONSIGLIO DEI VENTI ═══ -->
  <rect x="300" y="620" width="230" height="22" fill="#e8e8e8" stroke="#333333" stroke-width="0.8"/>
  <text class="classname" x="415" y="635" text-anchor="middle" fill="#111111">ConsiglioDeiVenti</text>
  <rect x="300" y="642" width="230" height="36" fill="#fff" stroke="#333333" stroke-width="0.5"/>
  <text class="body" x="310" y="658">- numeroProv : Int = 20</text>
  <text class="body" x="310" y="672">- sessione : String</text>
  <line x1="300" y1="678" x2="530" y2="678" stroke="#333333" stroke-width="0.5"/>
  <rect x="300" y="678" width="230" height="68" fill="#fff" stroke="#333333" stroke-width="0.5"/>
  <text class="body" x="310" y="694">+ indireRiunione() : String</text>
  <text class="body" x="310" y="710">+ deliberarePunizioni() : String</text>
  <text class="body" x="310" y="726">+ votareRimozAmmin() : String</text>
  <text class="body" x="310" y="742">+ inviarDelibera() : String</text>
  <rect x="300" y="620" width="230" height="126" fill="none" stroke="#333333" stroke-width="1.2" rx="4"/>
  <!-- aggregation Provveditore -> Consiglio -->
  <line x1="455" y1="548" x2="455" y2="585" stroke="#333" stroke-width="0.8"/>
  <line x1="455" y1="585" x2="415" y2="620" stroke="#333" stroke-width="0.8"/>
  <polygon points="415,620 409,610 415,600 421,610" fill="none" stroke="#333" stroke-width="0.8"/>
  <text class="label" x="465" y="598">0..20</text>
  <text class="label" x="377" y="617">1</text>

  <!-- ═══ ELEMENTO ═══ -->
  <rect x="30" y="640" width="230" height="22" fill="#e8e8e8" stroke="#333333" stroke-width="0.8"/>
  <text class="classname" x="145" y="655" text-anchor="middle" fill="#111111">Elemento</text>
  <rect x="30" y="662" width="230" height="68" fill="#fff" stroke="#333333" stroke-width="0.5"/>
  <text class="body" x="42" y="678">- codice : Int</text>
  <text class="body" x="42" y="694">- nome : String</text>
  <text class="body" x="42" y="710">- categoria : String</text>
  <text class="body" x="42" y="726">- dataCreazione : Date</text>
  <line x1="30" y1="730" x2="260" y2="730" stroke="#333333" stroke-width="0.5"/>
  <rect x="30" y="730" width="230" height="68" fill="#fff" stroke="#333333" stroke-width="0.5"/>
  <text class="body" x="42" y="746">+ visualizza() : String</text>
  <text class="body" x="42" y="762">+ getDettagli() : String</text>
  <text class="body" x="42" y="778">+ getCodice() : Int</text>
  <text class="body" x="42" y="794">+ getNome() : String</text>
  <rect x="30" y="640" width="230" height="158" fill="none" stroke="#333333" stroke-width="1.2" rx="4"/>

  <!-- ═══ SCOMPARTIMENTO ═══ -->
  <rect x="30" y="860" width="230" height="22" fill="#e8e8e8" stroke="#333333" stroke-width="0.8"/>
  <text class="classname" x="145" y="875" text-anchor="middle" fill="#111111">Scompartimento</text>
  <rect x="30" y="882" width="230" height="68" fill="#fff" stroke="#333333" stroke-width="0.5"/>
  <text class="body" x="42" y="898">- codice : Int</text>
  <text class="body" x="42" y="914">- nome : String</text>
  <text class="body" x="42" y="930">- categoria : String</text>
  <text class="body" x="42" y="946">- ordineCronologico : Boolean</text>
  <line x1="30" y1="950" x2="260" y2="950" stroke="#333333" stroke-width="0.5"/>
  <rect x="30" y="950" width="230" height="68" fill="#fff" stroke="#333333" stroke-width="0.5"/>
  <text class="body" x="42" y="966">+ getElementi() : List&lt;Elemento&gt;</text>
  <text class="body" x="42" y="982">+ aggiungiElemento()</text>
  <text class="body" x="42" y="998">+ rimuoviElemento()</text>
  <text class="body" x="42" y="1014">+ ordina() : List&lt;Elemento&gt;</text>
  <rect x="30" y="860" width="230" height="158" fill="none" stroke="#333333" stroke-width="1.2" rx="4"/>
  <!-- composition Elemento -> Scompartimento -->
  <line x1="145" y1="798" x2="145" y2="860" stroke="#333" stroke-width="0.8"/>
  <polygon points="145,798 139,810 145,822 151,810" fill="#555" stroke="#333" stroke-width="0.5"/>
  <text class="label" x="155" y="820">1</text>
  <text class="label" x="155" y="855">0..*</text>

  <!-- ═══ AVVISO ═══ -->
  <rect x="30" y="1070" width="230" height="22" fill="#e8e8e8" stroke="#333333" stroke-width="0.8"/>
  <text class="classname" x="145" y="1085" text-anchor="middle" fill="#111111">Avviso</text>
  <rect x="30" y="1092" width="230" height="52" fill="#fff" stroke="#333333" stroke-width="0.5"/>
  <text class="body" x="42" y="1108">- codice : Int</text>
  <text class="body" x="42" y="1124">- testo : String</text>
  <text class="body" x="42" y="1138">- dataEmissione : Date</text>
  <line x1="30" y1="1144" x2="260" y2="1144" stroke="#333333" stroke-width="0.5"/>
  <rect x="30" y="1144" width="230" height="52" fill="#fff" stroke="#333333" stroke-width="0.5"/>
  <text class="body" x="42" y="1160">+ invia(dest: Utente)</text>
  <text class="body" x="42" y="1176">+ getTesto() : String</text>
  <text class="body" x="42" y="1192">+ getDestinatario() : String</text>
  <rect x="30" y="1070" width="230" height="126" fill="none" stroke="#333333" stroke-width="1.2" rx="4"/>
  <!-- Moderatore -> Avviso -->
  <line x1="145" y1="1018" x2="145" y2="1070" stroke="#666" stroke-width="0.8" stroke-dasharray="5,3"/>
  <line x1="145" y1="1018" x2="225" y2="1018" stroke="#666" stroke-width="0.8" stroke-dasharray="5,3"/>
  <line x1="225" y1="532" x2="225" y2="1018" stroke="#666" stroke-width="0.8" stroke-dasharray="5,3"/>
  <polygon points="145,1070 139,1058 151,1058" fill="none" stroke="#666" stroke-width="0.8"/>
  <text class="label" x="230" y="780">invia</text>

  <!-- ═══ SOSPENSIONE ═══ -->
  <rect x="300" y="780" width="230" height="22" fill="#e8e8e8" stroke="#333333" stroke-width="0.8"/>
  <text class="classname" x="415" y="795" text-anchor="middle" fill="#111111">Sospensione</text>
  <rect x="300" y="802" width="230" height="68" fill="#fff" stroke="#333333" stroke-width="0.5"/>
  <text class="body" x="312" y="818">- codice : Int</text>
  <text class="body" x="312" y="834">- tipo : {temp, definitiva}</text>
  <text class="body" x="312" y="850">- dataInizio : Date</text>
  <text class="body" x="312" y="866">- dataFine : Date</text>
  <line x1="300" y1="870" x2="530" y2="870" stroke="#333333" stroke-width="0.5"/>
  <rect x="300" y="870" width="230" height="68" fill="#fff" stroke="#333333" stroke-width="0.5"/>
  <text class="body" x="312" y="886">+ esegui() : String</text>
  <text class="body" x="312" y="902">+ revoca() : String</text>
  <text class="body" x="312" y="918">+ getTipo() : String</text>
  <text class="body" x="312" y="934">+ isAttiva() : Boolean</text>
  <rect x="300" y="780" width="230" height="158" fill="none" stroke="#333333" stroke-width="1.2" rx="4"/>
  <line x1="415" y1="746" x2="415" y2="780" stroke="#666" stroke-width="0.8" stroke-dasharray="5,3"/>
  <polygon points="415,780 409,768 421,768" fill="none" stroke="#666" stroke-width="0.8"/>
  <text class="label" x="422" y="766">delibera</text>

  <!-- ═══ PANNELLO CONTROLLO ═══ -->
  <rect x="300" y="1000" width="230" height="22" fill="#e8e8e8" stroke="#333333" stroke-width="0.8"/>
  <text class="classname" x="415" y="1015" text-anchor="middle" fill="#111111">PannelloControllo</text>
  <rect x="300" y="1022" width="230" height="52" fill="#fff" stroke="#333333" stroke-width="0.5"/>
  <text class="body" x="312" y="1038">- livelloAccesso : String</text>
  <text class="body" x="312" y="1054">- logAttivita : List&lt;String&gt;</text>
  <text class="body" x="312" y="1068">- ultimoAccesso : Date</text>
  <line x1="300" y1="1074" x2="530" y2="1074" stroke="#333333" stroke-width="0.5"/>
  <rect x="300" y="1074" width="230" height="68" fill="#fff" stroke="#333333" stroke-width="0.5"/>
  <text class="body" x="312" y="1090">+ monitoraAttivita() : List</text>
  <text class="body" x="312" y="1106">+ segnalaProblema() : String</text>
  <text class="body" x="312" y="1122">+ getLog() : List&lt;String&gt;</text>
  <text class="body" x="312" y="1138">+ filtraEventi() : List</text>
  <rect x="300" y="1000" width="230" height="142" fill="none" stroke="#333333" stroke-width="1.2" rx="4"/>
  <!-- Moderatore -> PannelloControllo -->
  <line x1="282" y1="470" x2="300" y2="470" stroke="#666" stroke-width="0.8" stroke-dasharray="5,3"/>
  <line x1="300" y1="470" x2="300" y2="1000" stroke="#666" stroke-width="0.8" stroke-dasharray="5,3"/>
  <polygon points="300,1000 294,1012 306,1012" fill="none" stroke="#666" stroke-width="0.8"/>
  <text class="label" x="305" y="750">«uses»</text>
  <!-- Amministratore -> PannelloControllo -->
  <line x1="605" y1="582" x2="605" y2="1045" stroke="#666" stroke-width="0.8" stroke-dasharray="5,3"/>
  <line x1="605" y1="1045" x2="530" y2="1045" stroke="#666" stroke-width="0.8" stroke-dasharray="5,3"/>
  <polygon points="530,1045 542,1039 542,1051" fill="none" stroke="#666" stroke-width="0.8"/>

  <!-- Pubblicatore -> Elemento -->
  <line x1="75" y1="516" x2="75" y2="680" stroke="#666" stroke-width="0.8" stroke-dasharray="5,3"/>
  <line x1="75" y1="680" x2="30" y2="680" stroke="#666" stroke-width="0.8" stroke-dasharray="5,3"/>
  <polygon points="30,680 42,674 42,686" fill="none" stroke="#666" stroke-width="0.8"/>
  <text class="label" x="82" y="620">crea</text>

  <!-- ═══ PROCEDURA ELEZIONE ═══ -->
  <rect x="300" y="1200" width="230" height="22" fill="#e8e8e8" stroke="#333333" stroke-width="0.8"/>
  <text class="classname" x="415" y="1215" text-anchor="middle" fill="#111111">ProceduraElezione</text>
  <rect x="300" y="1222" width="230" height="84" fill="#fff" stroke="#333333" stroke-width="0.5"/>
  <text class="body" x="312" y="1238">- motivazione : String</text>
  <text class="body" x="312" y="1254">  {scadenza|dimissioni|</text>
  <text class="body" x="312" y="1270">   assenza|rimozione}</text>
  <text class="body" x="312" y="1286">- dataApertura : Date</text>
  <text class="body" x="312" y="1300">- maggioranzaRagg : Boolean</text>
  <line x1="300" y1="1306" x2="530" y2="1306" stroke="#333333" stroke-width="0.5"/>
  <rect x="300" y="1306" width="230" height="68" fill="#fff" stroke="#333333" stroke-width="0.5"/>
  <text class="body" x="312" y="1322">+ apriCandidature() : String</text>
  <text class="body" x="312" y="1338">+ contaVoti() : Int</text>
  <text class="body" x="312" y="1354">+ nomina() : Amministratore</text>
  <text class="body" x="312" y="1370">+ annulla() : String</text>
  <rect x="300" y="1200" width="230" height="174" fill="none" stroke="#333333" stroke-width="1.2" rx="4"/>
  <line x1="415" y1="1142" x2="415" y2="1200" stroke="#666" stroke-width="0.8" stroke-dasharray="5,3"/>
  <polygon points="415,1200 409,1188 421,1188" fill="none" stroke="#666" stroke-width="0.8"/>
  <text class="label" x="422" y="1180">indice</text>
  <!-- Elezione -> Amministratore -->
  <line x1="530" y1="1354" x2="620" y2="1354" stroke="#666" stroke-width="0.8" stroke-dasharray="5,3"/>
  <line x1="620" y1="1354" x2="620" y2="582" stroke="#666" stroke-width="0.8" stroke-dasharray="5,3"/>
  <polygon points="620,582 614,594 626,594" fill="none" stroke="#666" stroke-width="0.8"/>
  <text class="label" x="628" y="970">nomina</text>

  <!-- ═══ PREFERITI ═══ -->
  <rect x="30" y="1260" width="230" height="22" fill="#e8e8e8" stroke="#333333" stroke-width="0.8"/>
  <text class="classname" x="145" y="1275" text-anchor="middle" fill="#111111">Preferiti</text>
  <rect x="30" y="1282" width="230" height="52" fill="#fff" stroke="#333333" stroke-width="0.5"/>
  <text class="body" x="42" y="1298">- idUtente : String</text>
  <text class="body" x="42" y="1314">- elementi : List&lt;Elemento&gt;</text>
  <text class="body" x="42" y="1328">- dataAggiornamento : Date</text>
  <line x1="30" y1="1334" x2="260" y2="1334" stroke="#333333" stroke-width="0.5"/>
  <rect x="30" y="1334" width="230" height="52" fill="#fff" stroke="#333333" stroke-width="0.5"/>
  <text class="body" x="42" y="1350">+ aggiungi(e: Elemento)</text>
  <text class="body" x="42" y="1366">+ rimuovi(e: Elemento)</text>
  <text class="body" x="42" y="1382">+ getLista() : List&lt;Elemento&gt;</text>
  <rect x="30" y="1260" width="230" height="126" fill="none" stroke="#333333" stroke-width="1.2" rx="4"/>
  <!-- UtenteBase -> Preferiti -->
  <line x1="145" y1="1196" x2="145" y2="1260" stroke="#666" stroke-width="0.8" stroke-dasharray="5,3"/>
  <line x1="145" y1="1196" x2="190" y2="1196" stroke="#666" stroke-width="0.8" stroke-dasharray="5,3"/>
  <line x1="190" y1="210" x2="190" y2="1196" stroke="#666" stroke-width="0.8" stroke-dasharray="5,3"/>
  <polygon points="145,1260 139,1248 151,1248" fill="none" stroke="#666" stroke-width="0.8"/>
  <text class="label" x="152" y="1230">1</text>
  <text class="label" x="152" y="1258">1</text>

</svg>
